<?xml version="1.0" encoding="UTF-8"?>
<svg version="1.1" xmlns="http://www.w3.org/2000/svg" width="1920" height="1080">
<path d="M0 0 C16.5 0 33 0 50 0 C51.22332031 3.42761719 52.44664062 6.85523438 53.70703125 10.38671875 C64.25194707 39.92794881 74.81728338 69.4617582 85.40907288 98.98622131 C87.89673055 105.92138746 90.3818081 112.85747307 92.86509705 119.79420471 C94.58045693 124.58582153 96.29643366 129.37721736 98.01242065 134.16860962 C98.82190423 136.42938689 99.63109976 138.69026733 100.43997192 140.95126343 C101.56855798 144.10581623 102.69824166 147.25997416 103.828125 150.4140625 C104.14722336 151.30689438 104.46632172 152.19972626 104.79508972 153.11961365 C108.13503994 162.4367438 111.57780472 171.71118423 115 181 C115.33 121.27 115.66 61.54 116 0 C133.16 0 150.32 0 168 0 C168 102.3 168 204.6 168 310 C152.96979158 312.31233976 152.96979158 312.31233976 146.171875 313.0703125 C145.41255676 313.15626678 144.65323853 313.24222107 143.87091064 313.33078003 C142.29170145 313.50854016 140.71233444 313.68490386 139.1328125 313.85986328 C136.73891541 314.12623339 134.34605089 314.40083895 131.953125 314.67578125 C130.40109754 314.84945832 128.84901593 315.02265239 127.296875 315.1953125 C126.59665222 315.27653351 125.89642944 315.35775452 125.17498779 315.44143677 C120.09396596 315.99312463 115.11096943 316.06456093 110 316 C109.59386475 314.80141357 109.18772949 313.60282715 108.76928711 312.36791992 C101.26430676 290.22887264 93.72211761 268.10469348 85.99224854 246.0430603 C81.72614376 233.86336451 77.50170147 221.6698303 73.30859375 209.46484375 C73.06153435 208.74574892 72.81447495 208.02665409 72.55992889 207.28576851 C70.07894476 200.06355661 67.60029997 192.84054457 65.12438488 185.61659336 C64.19553627 182.90700138 63.26594829 180.19766337 62.33625984 177.48835945 C61.69820257 175.6278773 61.06129197 173.76700201 60.42442322 171.90611267 C60.03211014 170.76275955 59.63979706 169.61940643 59.2355957 168.44140625 C58.89889359 167.45857666 58.56219147 166.47574707 58.21528625 165.46313477 C56.51830651 160.62734441 54.75139931 155.81634811 53 151 C52.67 208.09 52.34 265.18 52 324 C3 331 3 331 0 331 C0 221.77 0 112.54 0 0 Z " fill="#E40813" transform="translate(349,374)"/>
<path d="M0 0 C18.48 0 36.96 0 56 0 C61.62470752 12.37435654 61.62470752 12.37435654 63.38427734 17.01196289 C63.78174164 18.05417496 64.17920593 19.09638702 64.5887146 20.17018127 C65.00029816 21.25999802 65.41188171 22.34981476 65.8359375 23.47265625 C66.27837799 24.63518417 66.72081848 25.7977121 67.17666626 26.99546814 C68.57944621 30.68322159 69.97741054 34.37277673 71.375 38.0625 C73.21497312 42.90799796 75.05677241 47.75280117 76.8984375 52.59765625 C77.3388739 53.75746002 77.7793103 54.91726379 78.23309326 56.11221313 C81.77332902 65.42731627 85.36521753 74.72141675 89 84 C95.12942808 70.50591272 101.05066999 56.92895622 106.84765625 43.2890625 C107.61798943 41.47654495 107.61798943 41.47654495 108.40388489 39.62741089 C110.50690252 34.67651157 112.60800649 29.72481309 114.70169067 24.7699585 C116.19725795 21.2310743 117.69617852 17.69362439 119.1953125 14.15625 C119.65007462 13.07606598 120.10483673 11.99588196 120.57337952 10.88296509 C120.99534103 9.88840302 121.41730255 8.89384094 121.85205078 7.86914062 C122.22000763 6.99793579 122.58796448 6.12673096 122.96707153 5.22912598 C124 3 124 3 126 0 C128.40444946 -0.36076355 128.40444946 -0.36076355 131.45947266 -0.34057617 C132.60050446 -0.34034958 133.74153625 -0.34012299 134.91714478 -0.33988953 C136.77186905 -0.31666374 136.77186905 -0.31666374 138.6640625 -0.29296875 C139.92640717 -0.28872391 141.18875183 -0.28447906 142.48934937 -0.28010559 C145.84661351 -0.26613137 149.20326932 -0.23917302 152.56036377 -0.20599365 C155.98550148 -0.17531352 159.41070201 -0.1616047 162.8359375 -0.14648438 C169.5574605 -0.11334641 176.27869511 -0.06309539 183 0 C180.76043244 7.07981976 178.03811156 13.84033726 175.08984375 20.65234375 C174.37077347 22.32592957 174.37077347 22.32592957 173.63717651 24.0333252 C172.34276786 27.04427468 171.045199 30.05383702 169.74621964 33.06281662 C168.38039107 36.22892759 167.01884165 39.39687742 165.65698242 42.56469727 C163.46221851 47.66889469 161.2654899 52.77224149 159.06738281 57.875 C156.79942497 63.14113537 154.53509716 68.40879846 152.27685547 73.67910767 C151.52990926 75.42225822 150.78219891 77.16508155 150.03369141 78.90756226 C148.24497381 83.07482888 146.47057637 87.24716456 144.72363281 91.43212891 C141.19653819 99.83692287 137.50524345 108.0941042 133.43423462 116.25192261 C119.6476786 140.55762827 119.6476786 140.55762827 118.47949219 167.07910156 C120.30426887 171.12587691 122.36458456 174.98608286 124.62103271 178.809021 C129.61938157 187.42964273 132.73548874 196.89161868 136.18621826 206.20678711 C138.29782425 211.86973513 140.48483199 217.50343739 142.6640625 223.140625 C143.55406313 225.45103624 144.44371049 227.76158359 145.33300781 230.07226562 C145.7740686 231.21783936 146.21512939 232.36341309 146.66955566 233.54370117 C148.85109205 239.21101205 151.03108591 244.87891592 153.2109375 250.546875 C153.84818504 252.20366272 153.84818504 252.20366272 154.49830627 253.8939209 C156.60157667 259.36252922 158.7041329 264.8314105 160.80541992 270.30078125 C164.3491158 279.52257372 167.89592632 288.74300511 171.4728241 297.95198059 C172.9012628 301.62997854 174.3263756 305.30926106 175.75131226 308.98861694 C176.41078291 310.68824765 177.07206392 312.38717716 177.73526001 314.08535767 C178.63522051 316.38985238 179.5292005 318.69658155 180.421875 321.00390625 C180.68640976 321.67621277 180.95094452 322.34851929 181.22349548 323.04119873 C182.30883261 325.86203576 183 327.94623442 183 331 C176.00822372 330.2191382 169.02661503 329.36955013 162.04638672 328.49169922 C159.2143708 328.14133143 156.38051605 327.8190091 153.54345703 327.51220703 C149.68229408 327.09453193 145.82792692 326.63503065 141.97454834 326.15097046 C140.45449424 325.96755063 138.93258958 325.7988456 137.40924072 325.64517212 C135.24919984 325.42468086 133.10159501 325.15199658 130.94921875 324.8671875 C129.70487061 324.72394043 128.46052246 324.58069336 127.1784668 324.43310547 C123.64790672 322.84124836 123.34492942 322.38306593 121.8190918 319.02905273 C121.19178453 317.360426 120.58614645 315.68352664 120 314 C119.34559265 312.34880025 118.68681227 310.69932771 118.02392578 309.05151367 C117.32877807 307.25787937 116.63601849 305.46331818 115.9453125 303.66796875 C115.56671082 302.68935379 115.18810913 301.71073883 114.79803467 300.70246887 C113.98951697 298.61183983 113.18200627 296.52082112 112.37542725 294.42944336 C111.11330987 291.15719137 109.84831739 287.88606427 108.58251953 284.61523438 C105.67126998 277.09137187 102.76397756 269.56598228 99.85668945 262.04058838 C97.8347908 256.80774995 95.81079702 251.57573408 93.78314209 246.34512329 C92.88735661 244.03190886 91.99466775 241.71751473 91.10205078 239.40307617 C90.56560121 238.01865097 90.02899059 236.63428816 89.4921875 235.25 C89.03183105 234.05890625 88.57147461 232.8678125 88.09716797 231.640625 C87.24655655 229.11933232 87.24655655 229.11933232 86 228 C85.7407222 228.60989777 85.4814444 229.21979553 85.21430969 229.84817505 C63.00257536 282.09209266 63.00257536 282.09209266 55.125 300.25 C54.60333252 301.45285645 54.08166504 302.65571289 53.54418945 303.89501953 C50.15101761 311.69796478 50.15101761 311.69796478 49 314 C43.41690795 313.47117272 37.83425987 312.93793268 32.25195312 312.40087891 C30.35916097 312.21937389 28.46625958 312.03900383 26.57324219 311.85986328 C15.66942424 310.82717365 4.82387408 309.69916299 -6 308 C-3.90557509 301.2767573 -1.32099693 294.86688928 1.515625 288.42578125 C1.95936462 287.40895767 2.40310425 286.39213409 2.86029053 285.34449768 C3.81903321 283.14798809 4.77939386 280.95218414 5.74121094 278.75701904 C8.34183768 272.81986813 10.92884097 266.87678575 13.515625 260.93359375 C13.91633965 260.01338818 13.91633965 260.01338818 14.32514954 259.07459259 C21.27296353 243.11610621 28.0968899 227.10482762 34.87768555 211.07470703 C39.11779992 201.05890221 43.38786178 191.06474449 47.84765625 181.14453125 C48.91971698 178.73695195 49.99021531 176.32868395 51.06030273 173.92022705 C52.0269248 171.76675556 53.01935256 169.62662483 54.01367188 167.48583984 C54.58469067 166.20340299 55.15443996 164.92039979 55.72265625 163.63671875 C56.21515869 162.56123779 56.70766113 161.48575684 57.21508789 160.37768555 C58.9668715 152.8392948 55.18289595 145.35663775 52.421875 138.40625 C51.88348999 137.02703873 51.88348999 137.02703873 51.33422852 135.6199646 C50.55475752 133.62537858 49.77230341 131.63195628 48.98718262 129.6395874 C47.72296676 126.43139798 46.46642706 123.22029592 45.21191406 120.00830078 C43.87419355 116.58348594 42.53599477 113.15886629 41.19549561 109.73513794 C36.00102204 96.46617606 30.87467986 83.17103827 25.75 69.875 C23.90895221 65.09892053 22.06779602 60.32288287 20.2265625 55.546875 C19.78357819 54.39752472 19.34059387 53.24817444 18.88418579 52.06399536 C16.3988809 45.61823651 13.90595313 39.17551792 11.40344238 32.73641968 C9.9707404 29.04907318 8.54156389 25.36036621 7.11291504 21.67144775 C6.46066361 19.99020582 5.80664557 18.30964806 5.15075684 16.62982178 C4.26528848 14.36169603 3.38583838 12.09132747 2.5078125 9.8203125 C2.24962738 9.16387756 1.99144226 8.50744263 1.72543335 7.83111572 C0.65573724 5.04800595 0 3.01392103 0 0 Z " fill="#E40913" transform="translate(1388,374)"/>
<path d="M0 0 C47.52 0 95.04 0 144 0 C144 17.16 144 34.32 144 52 C113.97 52 83.94 52 53 52 C53 74.77 53 97.54 53 121 C62.24 120.67 71.48 120.34 81 120 C88.42193062 119.938068 95.82967277 119.90167292 103.25 119.9375 C109.4375 119.958125 115.625 119.97875 122 120 C122 137.16 122 154.32 122 172 C114.141875 172.165 106.28375 172.33 98.1875 172.5 C95.75012451 172.55220703 93.31274902 172.60441406 90.80151367 172.65820312 C88.79866853 172.6993732 86.7958204 172.74039769 84.79296875 172.78125 C83.81058228 172.8028418 82.8281958 172.82443359 81.81604004 172.84667969 C72.20536375 173.03932897 62.62003234 173 53 173 C53 198.08 53 223.16 53 249 C62.9 248.01 62.9 248.01 73 247 C77.81307107 246.61845313 82.62092986 246.25300019 87.4375 245.9296875 C89.31671143 245.80075607 89.31671143 245.80075607 91.23388672 245.66921997 C93.84152586 245.49126545 96.44927428 245.31490496 99.05712891 245.14013672 C103.02154593 244.87355115 106.98537296 244.59915348 110.94921875 244.32421875 C113.50778077 244.15057346 116.06637352 243.9773803 118.625 243.8046875 C119.79087646 243.72346649 120.95675293 243.64224548 122.15795898 243.55856323 C123.83160522 243.4481218 123.83160522 243.4481218 125.5390625 243.33544922 C126.50021973 243.27042206 127.46137695 243.2053949 128.45166016 243.13839722 C133.63070757 242.93639691 138.81701474 243 144 243 C144 260.16 144 277.32 144 295 C137.33167969 295.47050781 130.66335938 295.94101562 123.79296875 296.42578125 C119.48630756 296.73083546 115.1796585 297.03604563 110.87304688 297.34179688 C104.08563397 297.82366026 97.29819037 298.30504558 90.51049805 298.78295898 C83.95862023 299.24441685 77.4069593 299.70885794 70.85546875 300.17578125 C69.78388393 300.25204868 68.71229912 300.32831612 67.60824203 300.40689468 C52.32733276 301.49841271 37.05938671 302.69291459 21.80595398 304.1209259 C20.52718887 304.23723862 19.24842377 304.35355133 17.9309082 304.47338867 C16.84800003 304.57560226 15.76509186 304.67781586 14.64936829 304.78312683 C9.77431133 305.07283973 4.88365784 305 0 305 C0 204.35 0 103.7 0 0 Z " fill="#E40813" transform="translate(565,374)"/>
<path d="M0 0 C47.52 0 95.04 0 144 0 C144 17.16 144 34.32 144 52 C113.64 52 83.28 52 52 52 C52 73.78 52 95.56 52 118 C75.1 118 98.2 118 122 118 C122.020625 126.394375 122.04125 134.78875 122.0625 143.4375 C122.071604 146.09095459 122.08070801 148.74440918 122.09008789 151.47827148 C122.09300686 153.56754506 122.09555546 155.65681919 122.09765625 157.74609375 C122.10277222 158.84215942 122.10788818 159.9382251 122.11315918 161.06750488 C122.11334045 162.62048279 122.11334045 162.62048279 122.11352539 164.20483398 C122.115746 165.10862289 122.11796661 166.0124118 122.12025452 166.94358826 C122 169 122 169 121 170 C118.85256451 170.09425595 116.70198974 170.11742648 114.55249023 170.11352539 C113.86842889 170.11364593 113.18436754 170.11376646 112.47957706 170.11389065 C110.25588337 170.11314171 108.03227254 170.10551441 105.80859375 170.09765625 C104.43949423 170.09618677 103.07039414 170.0951661 101.70129395 170.09460449 C96.61335409 170.08935232 91.52542624 170.07539122 86.4375 170.0625 C75.073125 170.041875 63.70875 170.02125 52 170 C52 208.94 52 247.88 52 288 C34.84 288 17.68 288 0 288 C0 192.96 0 97.92 0 0 Z " fill="#E40813" transform="translate(934,374)"/>
<path d="M0 0 C52.8 0 105.6 0 160 0 C160 17.16 160 34.32 160 52 C142.51 52 125.02 52 107 52 C107 130.21 107 208.42 107 289 C89.51 289.66 72.02 290.32 54 291 C54 212.13 54 133.26 54 52 C36.18 52 18.36 52 0 52 C0 34.84 0 17.68 0 0 Z " fill="#E50813" transform="translate(741,374)"/>
<path d="M0 0 C17.16 0 34.32 0 52 0 C52 79.2 52 158.4 52 240 C72.13 240.99 92.26 241.98 113 243 C126.86 243.99 126.86 243.99 141 245 C141 262.16 141 279.32 141 297 C128.62877497 297 128.62877497 297 122.97949219 296.66455078 C121.70895493 296.5908577 120.43841766 296.51716461 119.12937927 296.4412384 C118.466015 296.40127054 117.80265072 296.36130268 117.11918449 296.32012367 C114.97956881 296.19125878 112.83974943 296.06639065 110.69984436 295.94242859 C107.63465956 295.76453322 104.56956879 295.58513358 101.50454712 295.40444946 C93.50227667 294.93327897 85.49934211 294.47376694 77.49609375 294.01953125 C76.7008901 293.97437819 75.90568645 293.92922512 75.08638573 293.88270378 C58.78571584 292.96075178 42.47994403 292.2181662 26.16503906 291.59619141 C24.83767982 291.54456596 24.83767982 291.54456596 23.48350525 291.49189758 C21.8932438 291.43061141 20.30288855 291.37167007 18.7124176 291.31608582 C12.43898911 291.07690286 6.27979028 290.52331586 0 290 C0 194.3 0 98.6 0 0 Z " fill="#E40814" transform="translate(1110,374)"/>
<path d="M0 0 C17.49 0 34.98 0 53 0 C53 100.32 53 200.64 53 304 C50.51028498 305.24485751 49.17968967 304.99373828 46.41430664 304.76220703 C45.46314468 304.68527618 44.51198273 304.60834534 43.53199768 304.52908325 C42.50179001 304.4395639 41.47158234 304.35004456 40.41015625 304.2578125 C39.35469101 304.16998505 38.29922577 304.08215759 37.21177673 303.9916687 C34.97631828 303.80434711 32.74109741 303.61417198 30.50610352 303.42138672 C27.08080756 303.12657571 23.65478202 302.84187841 20.22851562 302.55859375 C18.05984493 302.37560224 15.89122333 302.19202788 13.72265625 302.0078125 C12.69447281 301.92234161 11.66628937 301.83687073 10.60694885 301.74880981 C9.65263474 301.66557465 8.69832062 301.58233948 7.71508789 301.49658203 C6.87506729 301.42472687 6.03504669 301.3528717 5.16957092 301.27883911 C3 301 3 301 0 300 C0 201 0 102 0 0 Z " fill="#E50813" transform="translate(1292,374)"/>
</svg>
